<svg id="Слой_1" data-name="Слой 1" xmlns="http://www.w3.org/2000/svg" viewBox="0 0 306.88 56.25"><defs><style>.cls-1{fill:#4986c6;}.cls-2{fill:#fff;}</style></defs><title>Novestio Logo</title><circle class="cls-1" cx="28.13" cy="28.13" r="28.12"/><path class="cls-1" d="M345.76,66.41a3.66,3.66,0,0,1-2.66,1.09,3.37,3.37,0,0,1-2.65-1.16,3.77,3.77,0,0,1-1-2.59,3.67,3.67,0,0,1,1-2.56,3.44,3.44,0,0,1,2.65-1.13,3.63,3.63,0,0,1,2.66,1.1,3.53,3.53,0,0,1,1.09,2.59A3.62,3.62,0,0,1,345.76,66.41Z" transform="translate(-74.67 -53.42)"/><path d="M159.15,59.31l22.4,26.27V59.31h6.83V96.56h-6.14L160,70.45V96.56h-6.83V59.31Z" transform="translate(-74.67 -53.42)"/><path d="M221.09,93.63a14,14,0,0,1-9.72,3.56,13.11,13.11,0,0,1-9.8-3.78,12.67,12.67,0,0,1-3.72-9.26,13,13,0,0,1,3.69-9.5q3.69-3.75,9.94-3.75a13.35,13.35,0,0,1,9.85,3.69A12.77,12.77,0,0,1,225.05,84,12.25,12.25,0,0,1,221.09,93.63Zm-14.77-3.77a6.91,6.91,0,0,0,5.16,2.06,6.56,6.56,0,0,0,5.13-2.17A8.3,8.3,0,0,0,218.53,84a8,8,0,0,0-2-5.75,6.89,6.89,0,0,0-5.27-2.12,6.53,6.53,0,0,0-5,2.09,8.14,8.14,0,0,0-2,5.78A8,8,0,0,0,206.32,89.86Z" transform="translate(-74.67 -53.42)"/><path d="M235.65,71.4l6.26,14.83,6.32-14.83h6.54L243.49,97.13h-3.38L228.73,71.4Z" transform="translate(-74.67 -53.42)"/><path d="M283.25,84.16v1H265.18a7.67,7.67,0,0,0,2.49,5.11,7.86,7.86,0,0,0,5.47,1.93,16.29,16.29,0,0,0,4.92-.76,20.67,20.67,0,0,0,4.64-2.13v5.13a18.69,18.69,0,0,1-5.06,2.21,21.56,21.56,0,0,1-5.61.68,13.16,13.16,0,0,1-9.67-3.71,13,13,0,0,1-3.76-9.66,12.83,12.83,0,0,1,3.57-9.44,12.53,12.53,0,0,1,9.31-3.6,11.07,11.07,0,0,1,8.46,3.55Q283.26,78,283.25,84.16ZM277,81.65a6.59,6.59,0,0,0-1.58-4.36,5.3,5.3,0,0,0-4.11-1.59A6,6,0,0,0,267,77.37a6.07,6.07,0,0,0-1.82,4.28Z" transform="translate(-74.67 -53.42)"/><path d="M307,73V78.4a26.64,26.64,0,0,0-4.09-2,10.38,10.38,0,0,0-3.47-.62,4,4,0,0,0-2.36.54,1.55,1.55,0,0,0-.72,1.25q0,1.8,3.61,3.4a22,22,0,0,1,6,3.72,6.55,6.55,0,0,1,2.35,5,6.67,6.67,0,0,1-2.52,5.32,10.37,10.37,0,0,1-6.88,2.12,20.11,20.11,0,0,1-4.18-.44,27,27,0,0,1-5-1.74V89.26a20.16,20.16,0,0,0,4.17,2.25,11,11,0,0,0,4,.84,5,5,0,0,0,2.89-.65,1.82,1.82,0,0,0,.92-1.46q0-1.84-3.61-3.62a29.26,29.26,0,0,1-6-3.72,6.27,6.27,0,0,1-2.35-5.05,6.11,6.11,0,0,1,2.52-4.94,10.11,10.11,0,0,1,6.5-2A17,17,0,0,1,307,73Z" transform="translate(-74.67 -53.42)"/><path d="M323.54,65.19H324v6h8.4v5.07H324V87a5.54,5.54,0,0,0,.89,3.6,3.51,3.51,0,0,0,2.8,1,9.31,9.31,0,0,0,3.05-.52,15.67,15.67,0,0,0,2.78-1.28v5.45a13.69,13.69,0,0,1-3.64,1.33,17.37,17.37,0,0,1-3.76.47q-4.37,0-6.52-2.27t-2.16-7.22V76.31h-4.36v-.88Z" transform="translate(-74.67 -53.42)"/><rect x="265.26" y="17.99" width="6.55" height="25.53"/><path d="M377.61,93.63a13.93,13.93,0,0,1-9.68,3.56,13,13,0,0,1-9.76-3.78,12.72,12.72,0,0,1-3.69-9.26,13,13,0,0,1,3.67-9.5q3.66-3.75,9.89-3.75a13.29,13.29,0,0,1,9.81,3.69A12.83,12.83,0,0,1,381.54,84,12.3,12.3,0,0,1,377.61,93.63Zm-14.7-3.77A6.84,6.84,0,0,0,368,91.92a6.48,6.48,0,0,0,5.1-2.17A8.3,8.3,0,0,0,375.06,84a8,8,0,0,0-2-5.75,6.83,6.83,0,0,0-5.24-2.12,6.5,6.5,0,0,0-5,2.09A8.18,8.18,0,0,0,360.91,84,8,8,0,0,0,362.91,89.86Z" transform="translate(-74.67 -53.42)"/><circle class="cls-2" cx="14.25" cy="13.83" r="3.92"/><circle class="cls-2" cx="28.25" cy="13.83" r="3.92"/><circle class="cls-2" cx="42.25" cy="13.83" r="3.92"/><circle class="cls-2" cx="14.25" cy="27.83" r="3.92"/><circle class="cls-2" cx="28.25" cy="27.83" r="3.92"/><circle class="cls-2" cx="42.25" cy="27.83" r="3.92"/><circle class="cls-2" cx="14.25" cy="41.83" r="3.92"/><circle class="cls-2" cx="28.25" cy="41.83" r="3.92"/><circle class="cls-2" cx="42.25" cy="41.83" r="3.92"/><rect class="cls-2" x="13.5" y="13.5" width="1.5" height="30.75"/><rect class="cls-2" x="41.5" y="13.5" width="1.5" height="30.75"/><rect class="cls-2" x="102" y="58.25" width="1.5" height="46" transform="translate(-102.02 43.04) rotate(-45)"/></svg>