<svg id="Режим_изоляции" data-name="Режим изоляции" xmlns="http://www.w3.org/2000/svg" viewBox="0 0 192.48 180.58"><defs><style>.cls-1{fill:#ffc410;}.cls-2{fill:#e0dfe6;}.cls-3{fill:#144665;}</style></defs><title>Вход</title><polyline class="cls-1" points="92.64 151.32 101.31 151.48 146.97 152.82 143.64 21.48 88.31 22.15 91.31 108.15"/><path class="cls-2" d="M122.85,361.14c.18,2.06.36,4.12.56,6.18.18,1.86.84,4,3.12,3.94,2,0,2.53-1.87,3.66-3.13A8.54,8.54,0,0,1,134,365.7c3.05-1,1.74-5.82-1.33-4.82a14.32,14.32,0,0,0-4.59,2.45A23.13,23.13,0,0,0,124.9,367l1.77-.73h-.27l1.77.73c.23.43.3.44.21,0l-.08-.92-.14-1.55-.31-3.4a2.57,2.57,0,0,0-2.5-2.5,2.52,2.52,0,0,0-2.5,2.5Z" transform="translate(-44.36 -193.52)"/><path class="cls-2" d="M169.85,359.18q6,4.29,12.14,8.5c2.77,1.9,7.16,6.33,10.75,6.11,1.62-.1,3.35-1.52,4.8-2.13a32.07,32.07,0,0,1,6.33-1.74,48.42,48.42,0,0,0,11.69-3.35H213l1,.59c2.8,1.59,5.33-2.73,2.53-4.32-3.14-1.78-5.45.4-8.73,1.2-4,1-8.13,1.33-12,2.87-2.4,1-2.72,2.1-5.24.63-2.12-1.24-4.11-2.79-6.13-4.17q-6.12-4.2-12.15-8.51c-2.62-1.87-5.12,2.46-2.52,4.32Z" transform="translate(-44.36 -193.52)"/><path class="cls-2" d="M185,210.51c-8.73.27-17.47.52-26.21.81-4.36.15-19.22-.23-23.5.53-2.52.44-4.95,1.43-5.46,4.3-1.12,6.29,8.51,9,9.65,2.65l.07-.4-3.49,3.49c2.43-.95,6.24-.34,8.87-.43,3.54-.13,17.08-.24,20.62-.36l19.45-.59c6.42-.19,6.45-10.19,0-10Z" transform="translate(-44.36 -193.52)"/><path class="cls-2" d="M127.31,222.81q-1.44,59.2.59,118.41c.33,9.68,10.33,9.74,10,0q-2-59.16-.59-118.41c.24-9.73-9.76-9.71-10,0Z" transform="translate(-44.36 -193.52)"/><path class="cls-2" d="M221.69,237l5.14,122c.27,6.41,10.27,6.45,10,0l-5.14-122c-.27-6.41-10.27-6.44-10,0Z" transform="translate(-44.36 -193.52)"/><path class="cls-2" d="M191.11,355.68c5.49,3.23,11.57,4.49,17.62,6.22,6.52,1.86,12.85,4.28,19.18,6.69,6,2.29,8.63-7.38,2.66-9.65-5.75-2.18-11.51-4.38-17.41-6.16-5.74-1.73-11.77-2.66-17-5.73-5.56-3.27-10.6,5.37-5,8.63Z" transform="translate(-44.36 -193.52)"/><path class="cls-2" d="M46.54,331.1c6.29,7.35,15.39.17,20.73-4.55,3.17-2.81,6.06-6.07,7.57-10.09.69-1.85,1.62-17.34,3.32-17l-1.75-1.74.18.51c1,3,5.87,1.72,4.82-1.33-.81-2.34-3.09-3.08-5.29-1.91-3.16,1.66-4.42,5.88-4.82,9.12-.83,6.66-.31,11.55-5.3,16.77-3.15,3.3-11.55,11.8-15.93,6.69-2.09-2.45-5.62,1.1-3.53,3.54Z" transform="translate(-44.36 -193.52)"/><path class="cls-2" d="M79.29,299.24c-2.37,12.77-3.07,25.23,6.89,35,4.5,4.41,10,7.28,15.44,10.28A43.15,43.15,0,0,1,118,359.7c1.7,2.72,6,.21,4.32-2.52a47,47,0,0,0-11.13-12.47c-4.52-3.49-9.77-5.7-14.59-8.7-5.28-3.29-10.33-7.71-12.62-13.66-2.67-6.94-1.17-14.72.14-21.78.58-3.15-4.24-4.5-4.83-1.33Z" transform="translate(-44.36 -193.52)"/><path class="cls-2" d="M85.36,334.55a82,82,0,0,1-5.8,10.87c-3,4.49-6.58,6.46-10.81,9.5-2,1.46-3.55,3.72-2.72,6.33,1.1,3.47,4.8,2.84,7.09,4.76v-3.54l.21-.1c-3.15.59-1.82,5.41,1.33,4.82a3,3,0,0,0,2-1.18c.78-1,1.13-2.59,0-3.54a9.37,9.37,0,0,0-2.72-1.71c-1.66-.7-2.75-.69-1.32-2.32,1.74-2,5.14-3.18,7.12-5.25,4.41-4.6,7.25-10.41,9.93-16.12,1.36-2.89-2.94-5.43-4.31-2.52Z" transform="translate(-44.36 -193.52)"/><path class="cls-2" d="M59.32,370.48a150.13,150.13,0,0,1,18,.31c3.21.25,3.2-4.75,0-5a150.13,150.13,0,0,0-18-.31c-3.2.13-3.22,5.13,0,5Z" transform="translate(-44.36 -193.52)"/><path class="cls-2" d="M94.65,299.18c1.5,6.39,3.72,10.53,9.91,13.1,3.86,1.61,8.84,4,10.22,8.17a7.64,7.64,0,0,0,1.24,2.89c.57.75,3,2,3.07,2.82.2,3.19,5.2,3.22,5,0s-2.12-3.32-3.75-5.55-1.36-4.45-3.64-6.54a32.43,32.43,0,0,0-8.57-5.72c-2.53-1.13-5.13-1.78-6.63-4.33a21.82,21.82,0,0,1-2-6.17c-.73-3.13-5.56-1.81-4.82,1.33Z" transform="translate(-44.36 -193.52)"/><path class="cls-2" d="M93.7,275.53c2.6-2.6,5.59-5.61,7.27-8.92s0-6.89-.74-10.13-5.55-1.8-4.82,1.33c.64,2.69,1.92,5.49.18,7.93A48.86,48.86,0,0,1,90.16,272c-2.28,2.28,1.26,5.81,3.54,3.54Z" transform="translate(-44.36 -193.52)"/><path class="cls-2" d="M92,249.75l-1,.34a15.4,15.4,0,0,1-2.57-.21q-1.65-.1-3.3-.12a27.79,27.79,0,0,0-5.77.3,2.54,2.54,0,0,0-2.07,1.51,10,10,0,0,0-.26,2.8,31.19,31.19,0,0,1-.69,3.3,1.14,1.14,0,0,0,2.2.61c.54-1.73.84-3.93,2.73-4.44l.34-.06a2.2,2.2,0,0,0,2.15,2.77,30.37,30.37,0,0,0,9.06-2.31,5.06,5.06,0,0,0,.9-.38C95.91,252.66,94.42,248.81,92,249.75Z" transform="translate(-44.36 -193.52)"/><path class="cls-3" d="M100.17,250.24c-1.33-1.59-4.2-3.48-10.38-3.48-8.21,0-12,.34-14.07,2.44-1.9,1.9-1.89,4.66-1.88,9.23v1.2c0,8.32,3.52,10.43,6.09,12,1.81,1.08,2.8,1.68,2.8,4.09,0,3.92-3,5.75-9.19,9.19-.42.24-.84.46-1.26.67a1,1,0,0,1,.68,1.22.54.54,0,0,1,0,.11.89.89,0,0,1,.4.2,1,1,0,0,1,.54.23,1.08,1.08,0,0,1,.43.58l.72-.38c6-3.33,10.73-6,10.73-11.82,0-4.11-2.26-5.47-4.26-6.67-2.38-1.42-4.63-2.77-4.63-9.39v-1.21c0-3.79,0-6.08,1-7.1,1.31-1.31,5.21-1.56,12-1.56,3.56,0,5.65.71,6.84,1.4-2.48,1.78-6.15,3.74-8.65,3.74a5.23,5.23,0,0,1-3.85-1.64A1.5,1.5,0,1,0,82,255.38a8.2,8.2,0,0,0,6,2.52c4.08,0,9.42-3.33,12-5.56A1.5,1.5,0,0,0,100.17,250.24Z" transform="translate(-44.36 -193.52)"/><path class="cls-3" d="M76.18,261.92a1.5,1.5,0,0,1,0-3c2.24,0,4.67-1.37,4.86-3.67a1.5,1.5,0,0,1,3,.25C83.7,259.52,79.78,261.92,76.18,261.92Z" transform="translate(-44.36 -193.52)"/><path class="cls-3" d="M99.33,282.27v-.1c-3.32-1.66-6.39-3.49-6.39-5.17,0-1.18.75-2.05,2.07-3.49,1.83-2,4.35-4.75,4.35-10a41.89,41.89,0,0,0-.71-6.59c-.23-1.41-.44-2.75-.56-4a1.5,1.5,0,0,0-3,.28c.13,1.4.36,2.84.59,4.24a40.16,40.16,0,0,1,.67,6.12c0,4.1-1.81,6.08-3.56,8-1.41,1.53-2.86,3.12-2.86,5.52,0,3.15,3.2,5.38,7.28,7.47-.38-.53-.22-1.49.51-1.6.52-.08,1.06-.18,1.58-.31C99.32,282.46,99.32,282.36,99.33,282.27Z" transform="translate(-44.36 -193.52)"/><path class="cls-3" d="M95.73,313.27h-.18a1.5,1.5,0,0,1-1.31-1.67,155.73,155.73,0,0,0,1.19-18.3c0-1.22,0-2.44-.06-3.65a1.5,1.5,0,0,1,3-.1q.06,1.88.06,3.75A159.8,159.8,0,0,1,97.22,312,1.5,1.5,0,0,1,95.73,313.27Z" transform="translate(-44.36 -193.52)"/><path class="cls-3" d="M77.69,367.71a5.18,5.18,0,0,0,.11-.79,2.11,2.11,0,0,0,0-.35c-2,0-4,.07-6,.07-4.06,0-7.49-.12-10.62-.39,1.29-4.44,4.22-8.72,7.54-13.59,6.16-9,13.14-19.21,13.14-35,0-1.38-.07-2.76-.19-4.13A1.5,1.5,0,0,0,80,312.23a1.49,1.49,0,0,0-1.35,1.63c.12,1.27.18,2.57.18,3.85,0,14.81-6.7,24.61-12.61,33.26-3.76,5.49-7.3,10.68-8.41,16.32a1.48,1.48,0,0,0,.27,1.17,1.53,1.53,0,0,0,1,.61,119.51,119.51,0,0,0,12.64.57c1.5,0,3,0,4.52,0A4,4,0,0,0,77.69,367.71Z" transform="translate(-44.36 -193.52)"/><path class="cls-3" d="M92.27,333.33c-.92-.43-1.83-.88-2.7-1.38C85,343.5,77.41,352.79,67.64,358.51a1.49,1.49,0,0,0-.7,1.64c.92,3.88,4.3,6.2,7.57,8.45l1.06.73a1.51,1.51,0,0,0,.86.27,1.5,1.5,0,0,0,.86-2.73l-1.08-.75c-2.56-1.75-5-3.42-6-5.66C80,354.42,87.62,345,92.27,333.33Z" transform="translate(-44.36 -193.52)"/><path class="cls-3" d="M71.67,358.45l-.19,0a14,14,0,0,1-3.31-1,12,12,0,0,0-3-.89,1.5,1.5,0,1,1,.33-3,14.83,14.83,0,0,1,3.79,1.07,11.71,11.71,0,0,0,2.59.79,1.5,1.5,0,0,1-.18,3Z" transform="translate(-44.36 -193.52)"/><path class="cls-3" d="M124.43,369.37a1.52,1.52,0,0,1-.76-.07,1.49,1.49,0,0,1-.94-1c-.25-1-.59-1.93-1-2.93a25.22,25.22,0,0,1-1.3-4.42,1.51,1.51,0,0,1,1.24-1.73,1.49,1.49,0,0,1,1.72,1.23,21.27,21.27,0,0,0,1.16,3.89c.13.39.28.78.41,1.17a63.57,63.57,0,0,1,8.33-4.79c-2.69-.36-5.5-1-7.54-3.51a1.5,1.5,0,0,1,2.32-1.91c1.66,2,4.32,2.31,7.12,2.63a28.78,28.78,0,0,1,4,.63,1.5,1.5,0,0,1,.14,2.86,59.62,59.62,0,0,0-14.3,7.73A1.38,1.38,0,0,1,124.43,369.37Z" transform="translate(-44.36 -193.52)"/><path class="cls-3" d="M88.34,269.28a1.5,1.5,0,0,1-.67-2.85c.66-.33.66-.6.66-.81a7.38,7.38,0,0,0-.92-2.54c-.24-.49-.49-1-.68-1.49a1.5,1.5,0,1,1,2.81-1.07c.14.36.34.79.57,1.24a9.21,9.21,0,0,1,1.22,3.86,3.76,3.76,0,0,1-2.32,3.5A1.44,1.44,0,0,1,88.34,269.28Z" transform="translate(-44.36 -193.52)"/><path class="cls-3" d="M81.72,313.5l0-16.67a1.5,1.5,0,0,0-3,0l0,16.67a1.5,1.5,0,0,0,3,0Z" transform="translate(-44.36 -193.52)"/><path class="cls-3" d="M78.72,320.77c-1.84,6.64,11.22,14,15.37,17.07,4.77,3.49,9.7,6.79,14.29,10.5s8,8.79,13,12.12c1.61,1.07,3.12-1.53,1.51-2.59-4.57-3-7.56-7.61-11.73-11.09-3.45-2.88-7.17-5.46-10.81-8.09-4.19-3-8.43-6-12.38-9.31-1.63-1.37-7.1-5.21-6.38-7.81a1.5,1.5,0,0,0-2.89-.8Z" transform="translate(-44.36 -193.52)"/><path class="cls-3" d="M127.72,354.82A156.56,156.56,0,0,0,114,334.09q-3.78-4.83-8-9.33c-3.52-3.79-7.7-7.18-9.09-12.37a1.5,1.5,0,0,0-2.89.8c2.07,7.74,9.52,13,14.5,18.94a152.7,152.7,0,0,1,16.61,24.21c.94,1.68,3.53.17,2.59-1.52Z" transform="translate(-44.36 -193.52)"/><path class="cls-3" d="M122,360.85a17.31,17.31,0,0,1,5.11-4c1.71-.89.2-3.48-1.52-2.59a19.52,19.52,0,0,0-5.71,4.47c-1.27,1.44.84,3.57,2.12,2.12Z" transform="translate(-44.36 -193.52)"/><path class="cls-3" d="M96.47,283.39a29.52,29.52,0,0,1,5.08,10.94c.68,2.94,1.11,5.87,2.71,8.48,3.21,5.21,8.91,9.73,13.83,13.24,1.57,1.13,3.07-1.47,1.51-2.59-5.51-3.93-12.41-9.47-14.35-16.14-1.67-5.72-2.59-10.5-6.19-15.44-1.12-1.54-3.73-.05-2.59,1.51Z" transform="translate(-44.36 -193.52)"/><path class="cls-3" d="M95.37,299.94c.94,3.6,2.08,7,5.1,9.34a73.22,73.22,0,0,0,6.6,4.23c2.31,1.47,5.81,2.94,7.24,5.35a1.5,1.5,0,0,0,2.59-1.51c-2-3.38-6.31-5.16-9.52-7.18-1.93-1.22-4.26-2.33-5.9-3.93-1.92-1.88-2.57-4.59-3.22-7.09a1.5,1.5,0,0,0-2.89.79Z" transform="translate(-44.36 -193.52)"/><path class="cls-3" d="M118.32,316.23a7.87,7.87,0,0,1,3.72,5.66c.07.34.74,4,.48,4.13a24.3,24.3,0,0,0-1.76-2.87c-.82-1.24-1.73-2.91-3.35-3.17-.66-.11-2-.14-1.19.62s.59-.17.8-.85l.66-2.1c.58-1.85-2.32-2.64-2.89-.8-.45,1.41-1.63,3.55-1.11,5.08.42,1.26,1.25,1.19,2.3,1.34a1.5,1.5,0,0,0,.75-.2,2.33,2.33,0,0,1,1.2,1.23c.72.89,1.23,2,1.91,2.89a4.19,4.19,0,0,0,3.1,2.11c3.52.07,2.53-4.75,2.22-6.86-.53-3.6-2-7-5.32-8.8-1.7-.93-3.21,1.66-1.52,2.59Z" transform="translate(-44.36 -193.52)"/><path class="cls-3" d="M73.92,284.75c-5.41,2.91-7.32,7.71-9.11,13.34-2.2,7-2.61,17.23-8.12,22.52-1.4,1.33.73,3.45,2.12,2.12,9.6-9.21,4.11-28.64,16.62-35.39,1.7-.91.19-3.5-1.51-2.59Z" transform="translate(-44.36 -193.52)"/><path class="cls-3" d="M79.39,294.6c-7.37-.38-8,10.09-9.47,15.2-1.32,4.51-3.18,8.81-6.54,12.2-2.27,2.3-5.08,3.28-7,5.91-1.14,1.56,1.46,3.06,2.59,1.51,1.63-2.22,4.59-3.29,6.55-5.3a26.4,26.4,0,0,0,4.75-6.72c1.81-3.67,4.29-20,9.13-19.8,1.93.1,1.93-2.9,0-3Z" transform="translate(-44.36 -193.52)"/><path class="cls-3" d="M56.06,328c-1.09,1.65-3.86,1.6-5.61,1.5-.79,0-3.93-.6-3-2.26.42-.75,1.88-.52,2.56-.47,1.18.08,2.46.44,3.46-.38s.47-3,1.88-2.46c1.78.74,2.55-2.16.79-2.9a3.51,3.51,0,0,0-3.57.54,3.55,3.55,0,0,0-1.15,1.6c-.09.27-.07.56-.15.84s.52,0,0-.12c-2.66-.59-6.39,0-6.81,3.24-.91,7,11.42,6.65,14.24,2.38,1.07-1.61-1.53-3.12-2.59-1.51Z" transform="translate(-44.36 -193.52)"/><path class="cls-3" d="M189.28,218.32l18.32,6.6c5.77,2.09,12.34,3.66,17.1,7.72,1.46,1.24,3.59-.87,2.12-2.12-4.29-3.66-9.53-5.28-14.76-7.17l-22-7.93c-1.82-.65-2.6,2.24-.79,2.9Z" transform="translate(-44.36 -193.52)"/><path class="cls-3" d="M191.94,349l18.33,6.61c5.77,2.08,12.34,3.66,17.09,7.72,1.47,1.24,3.6-.87,2.13-2.13-4.29-3.65-9.54-5.28-14.76-7.16l-22-7.93c-1.82-.66-2.6,2.24-.8,2.89Z" transform="translate(-44.36 -193.52)"/><path class="cls-3" d="M224,231.68q1.15,64.67,3.86,129.3c.08,1.93,3.08,1.94,3,0q-2.72-64.62-3.86-129.3c0-1.93-3-1.94-3,0Z" transform="translate(-44.36 -193.52)"/><path class="cls-3" d="M131.69,217.51q1.14,64.68,3.85,129.31c.08,1.92,3.08,1.93,3,0q-2.7-64.63-3.85-129.31c0-1.93-3-1.94-3,0Z" transform="translate(-44.36 -193.52)"/><path class="cls-3" d="M187.36,217.68q1.14,64.67,3.85,129.3c.08,1.93,3.08,1.94,3,0q-2.7-64.62-3.85-129.3c0-1.93-3-1.94-3,0Z" transform="translate(-44.36 -193.52)"/><path class="cls-3" d="M133.69,218.47a509.48,509.48,0,0,0,53.3.18c1.92-.12,1.93-3.12,0-3a509.48,509.48,0,0,1-53.3-.18c-1.92-.13-1.92,2.87,0,3Z" transform="translate(-44.36 -193.52)"/><path class="cls-3" d="M138.77,347.77c14.64.15,39.28.3,53.92.45,2.35,0,2.35-2.91,0-2.93-14.64-.15-39.28-.3-53.92-.46-2.36,0-2.36,2.91,0,2.94Z" transform="translate(-44.36 -193.52)"/><path class="cls-3" d="M138.17,273.33v3a1.5,1.5,0,0,0,3,0v-3a1.5,1.5,0,0,0-3,0Z" transform="translate(-44.36 -193.52)"/><path class="cls-3" d="M190.66,230.81c-5.85-2.69-3.39,9.23-2.95,11.55.25,1.34,2.1,1.37,2.74.36a9.71,9.71,0,0,0,1.33-6.1c-.13-1.68-.13-4.09-1.7-5.07a1.5,1.5,0,0,0-1.81.24,1.7,1.7,0,0,0-.46,1.82,1.55,1.55,0,0,0,1.85,1l.14,0c1.89-.34,1.09-3.23-.8-2.89l-.14,0,1.85,1.05-.07-.22-.39,1.46.14-.14-1.82.23.32.2-.69-.9c.86,2.37,1,5.59-.34,7.77l2.74.35a45.8,45.8,0,0,1-.65-4.68c-.07-.73-.12-1.46-.14-2.19l0-.73c.24-.69,0-.87-.63-.56,1.74.8,3.26-1.78,1.51-2.59Z" transform="translate(-44.36 -193.52)"/><path class="cls-3" d="M193.91,324.65a3.14,3.14,0,0,0-5.14,1.76,8.76,8.76,0,0,0,.39,4c.5,2.15,1,4.3,1.51,6.45a1.52,1.52,0,0,0,2.51.66c3-3.17.46-6.77,1.35-10.42.46-1.87-2.43-2.67-2.89-.79a10.9,10.9,0,0,0-.07,4.37c.23,1.56.71,3.44-.51,4.72l2.51.66-1.14-4.84c-.19-.8-.41-1.61-.57-2.42-.06-.33-.08-2-.07-2,1.47,1.23,3.6-.88,2.12-2.12Z" transform="translate(-44.36 -193.52)"/><path class="cls-3" d="M188.53,195.62a75.94,75.94,0,0,0,.22,10.45c.15,1.62,2.81,1.63,2.66,0a76,76,0,0,1-.23-10.45c.08-1.63-2.58-1.63-2.65,0Z" transform="translate(-44.36 -193.52)"/><path class="cls-3" d="M190.71,196.08c.39,0,1.83-.19,2.11.08l-.22,1.58a8.82,8.82,0,0,1-1.58.51,1.27,1.27,0,0,0,.36,2.5c1.47.06,3.68,2.78,2.75,4.2-.35.53.2.18-.69.17a7.91,7.91,0,0,1-2.4-.5c-1.62-.54-2.31,1.91-.71,2.45,2.48.85,6.55,1.32,6.46-2.12-.09-3.25-1.63-6.58-5.41-6.74l.35,2.49c2.21-.59,4.94-1.94,4.35-4.6-.51-2.35-3.29-2.7-5.37-2.56-1.69.12-1.71,2.66,0,2.54Z" transform="translate(-44.36 -193.52)"/><path class="cls-3" d="M199.13,197.94a56,56,0,0,0,5.17,11.6c.84,1.43,3.14.15,2.3-1.28a52.93,52.93,0,0,1-4.9-11c-.5-1.56-3.06-.9-2.57.67Z" transform="translate(-44.36 -193.52)"/><path class="cls-3" d="M205.9,198.82l-7.08,8.25c-1.07,1.25.8,3.06,1.88,1.79l7.08-8.24c1.08-1.25-.79-3.06-1.88-1.8Z" transform="translate(-44.36 -193.52)"/><path class="cls-3" d="M211.63,201.36c-2.06,2.73-4.24,6.86-3.55,10.35.59,3,3.74,3.45,5.89,1.55,2.41-2.12,3.85-6.48,3.78-9.54,0-2.49-2.76-4.94-5.25-3.22-1.37.95-.05,3.16,1.34,2.2s1.08,2.41,1,2.75a20.78,20.78,0,0,1-.54,2.06c-.28.93-1.36,4.33-2.69,4.3-1.9-.05-.51-3.8-.22-4.62a17,17,0,0,1,2.53-4.55c1-1.33-1.3-2.6-2.29-1.28Z" transform="translate(-44.36 -193.52)"/><path class="cls-3" d="M221.81,203.71a31.56,31.56,0,0,0-2.47,9.71c-.16,1.63,2.5,1.62,2.65,0a29.64,29.64,0,0,1,2.38-9c.66-1.51-1.91-2.17-2.56-.68Z" transform="translate(-44.36 -193.52)"/><path class="cls-3" d="M223.13,205.24l2.26.42-.93-.89a20,20,0,0,1-.68,11.35c-.56,1.55,2,2.21,2.57.68a22.82,22.82,0,0,0,.68-12.71,1.24,1.24,0,0,0-.93-.88l-2.26-.42c-1.67-.31-2.39,2.14-.71,2.45Z" transform="translate(-44.36 -193.52)"/><path class="cls-3" d="M217.3,215.58q4.94,1.81,9.7,4l-.48-1.74a5.6,5.6,0,0,0-1.14,3.18c-.11,1.63,2.54,1.62,2.66,0a3.27,3.27,0,0,1,.77-1.9,1.23,1.23,0,0,0-.47-1.73q-5.09-2.34-10.34-4.27c-1.59-.58-2.29,1.87-.7,2.45Z" transform="translate(-44.36 -193.52)"/><path class="cls-3" d="M215.07,214.25v2.26a1.33,1.33,0,0,0,2.66,0v-2.26a1.33,1.33,0,0,0-2.66,0Z" transform="translate(-44.36 -193.52)"/><path class="cls-3" d="M194.32,347.34a83.32,83.32,0,0,0,9.35.13c1.92-.08,1.93-3.08,0-3a83.32,83.32,0,0,1-9.35-.13c-1.93-.14-1.92,2.86,0,3Z" transform="translate(-44.36 -193.52)"/><path class="cls-3" d="M203.56,347.59q11.82,3.54,23.39,7.81c1.82.67,2.6-2.23.8-2.9q-11.58-4.26-23.39-7.8c-1.86-.56-2.65,2.34-.8,2.89Z" transform="translate(-44.36 -193.52)"/><path class="cls-3" d="M167,355.15c6.81.43,14-1.37,20.68-2.36,1.91-.28,1.1-3.17-.79-2.89-6.5,1-13.31,2.67-19.89,2.25-1.93-.12-1.92,2.88,0,3Z" transform="translate(-44.36 -193.52)"/><path class="cls-3" d="M188.63,353a116.24,116.24,0,0,1,25.66,11.54c1.65,1,3.16-1.59,1.51-2.59a119.19,119.19,0,0,0-26.37-11.84c-1.85-.58-2.64,2.32-.8,2.89Z" transform="translate(-44.36 -193.52)"/><path class="cls-3" d="M213.9,362.73c-8.08,2-15.7,5.35-23.32,8.64-1.77.76-.25,3.35,1.51,2.59,7.39-3.19,14.78-6.4,22.61-8.34,1.87-.46,1.08-3.35-.8-2.89Z" transform="translate(-44.36 -193.52)"/><path class="cls-3" d="M164.06,355.66c8.89,5.13,17.25,11.56,25.52,17.64,1.55,1.14,3-1.46,1.51-2.6-8.27-6.07-16.63-12.5-25.51-17.63a1.5,1.5,0,0,0-1.52,2.59Z" transform="translate(-44.36 -193.52)"/><path class="cls-3" d="M175,356.32c4.39.83,8-1.58,12.37-1.57l-.4-2.94a26.28,26.28,0,0,0-11.49,6,1.51,1.51,0,0,0,.66,2.51c5.48,1.58,9.52-2,14.66-3.17l-1.7-2.2c-1.29,2.09-4.45,1.74-5.76,4.11a1.51,1.51,0,0,0,1.29,2.25c2.49.12,6.74-.9,9-.24,1,.28-4.58,1.55-5.57,1.74-1.51.31-1.34,2.5,0,2.9,3.6,1.07,6.69,0,10-1.44l-1.52-2.59a33.71,33.71,0,0,0-7.25,5.42,1.51,1.51,0,0,0,1.45,2.51c3.94-.77,7-4.56,11.15-4.1l-.76-2.79a16.14,16.14,0,0,1-3.27,1.64c-1.77.77-.24,3.35,1.51,2.59a15.89,15.89,0,0,0,3.27-1.64,1.51,1.51,0,0,0-.75-2.8c-4.74-.52-7.54,3.35-11.94,4.2l1.46,2.51a30.93,30.93,0,0,1,6.65-4.95c1.73-1,.21-3.33-1.52-2.59-2.61,1.13-4.88,2-7.71,1.13v2.9c2.34-.47,10.69-2.19,9.5-6.21-.34-1.14-1.07-1.49-2.18-1.73-1.28-.28-3.08.37-4.35.48a56.57,56.57,0,0,1-7.25.06l1.3,2.26c1.11-2,4.43-2,5.76-4.11a1.51,1.51,0,0,0-1.69-2.2c-4.38,1-8.44,4.5-13.06,3.16l.66,2.51a23.13,23.13,0,0,1,10.17-5.26,1.51,1.51,0,0,0-.4-2.95c-3.9,0-7.7,2.41-11.58,1.68-1.88-.35-2.69,2.54-.79,2.89Z" transform="translate(-44.36 -193.52)"/></svg>