<svg id="Режим_изоляции" data-name="Режим изоляции" xmlns="http://www.w3.org/2000/svg" viewBox="0 0 135.54 139.11"><defs><style>.cls-1{fill:#e0dfe6;}.cls-2{fill:#ffc410;}.cls-3{fill:#144665;}</style></defs><title>Забыли логин-пароль</title><path class="cls-1" d="M736.16,251.89c-.27-.28-.53-.57-.79-.86a4,4,0,0,0-2.76-1.2c-1.51-.77-3.07-1.57-4.65-2.33-1.73-2-4.43-3.49-6.69-5.09-4.62-3.28-9-3.87-14.54-3.78-6.27.1-17.09,1.07-19.45,8-1.32-.3-2.63-.58-3.95-.81-3.15-.56-6,0-7.92,2.73a20.76,20.76,0,0,0-2.7,6.19,1.61,1.61,0,0,0-.75-.5l-.61-.2a2.81,2.81,0,0,0-2.78.73c-4.19,4.43-5.67,10-5.47,16.06a48.69,48.69,0,0,0,4.44,18.37c.78,1.56,2.92,1.26,3.77,0a7.81,7.81,0,0,0,.45-.78l.09.35a1.24,1.24,0,0,0,2.24.29,32.44,32.44,0,0,0,2.56-9.2c.63-3.51,2.44-5.71,4.39-8.6,2.91-4.32,6.35-10.33,5.87-15.74,2.55.83,5.1,1.68,7.67,2.45,3.67,1.11,8.53,3.49,12.24,1.34,2-1.17,3.35-3.79,1.86-5.92-.91-1.3-2.88-2-4.91-2.54.66-.14,1.32-.28,2-.39,8.22-1.4,17.79,4.93,24.79,8.71A4.66,4.66,0,0,0,736.16,251.89Zm-54.83,1.93c-2,2.74-2.39,6.33-3.84,9.41-.17.34-.34.68-.52,1,1.2-3.42,2.27-8,4.32-10.71l.25.05A2.25,2.25,0,0,0,681.33,253.82Z" transform="translate(-652.79 -230.79)"/><path class="cls-1" d="M694.39,331.34a2.4,2.4,0,0,0-.3-.41,7.57,7.57,0,0,0-.33-1.89,6.58,6.58,0,0,0-3-3.83,32,32,0,0,0-9.56-3.8c-1.37-.26-2.89,1.2-2,2.56a20.46,20.46,0,0,0,2.91,3.45,51.19,51.19,0,0,1,3.83,3.49,1.14,1.14,0,0,0,.18.19.13.13,0,0,1,0,.06,8.09,8.09,0,0,1,0,1.63,6.46,6.46,0,0,0,1.9,4.45c2.63,2.7,6.79.52,7-2.91A5.29,5.29,0,0,0,694.39,331.34Z" transform="translate(-652.79 -230.79)"/><path class="cls-1" d="M740.53,267a1,1,0,0,0-1.55.2c-1.71,2.88-1.34,5.76-1.36,9.06,0,4.29,0,8.59-.25,12.87a50.69,50.69,0,0,1-6.46,22.44c0,.15-.13.29-.19.44l-.24.58c-1.94,4.6,5.33,7.21,7.8,3.29a47.52,47.52,0,0,0,6.8-23.69C745.32,285.32,745.61,272.31,740.53,267Z" transform="translate(-652.79 -230.79)"/><path class="cls-1" d="M718.31,315.33a47.94,47.94,0,0,0-4.31-2.85c-1.11-.66-4.22-1.94-5-.15a5.35,5.35,0,0,0,.69,5.39,17.08,17.08,0,0,0,3.57,4.23c2,1.54,4.59,1.77,6.28-.42S720.32,316.85,718.31,315.33Z" transform="translate(-652.79 -230.79)"/><path class="cls-1" d="M756.85,362.09c-.44-2.88-.83-5.78-1.33-8.66-.46-2.63-.75-5.52-2.41-7.68a2.82,2.82,0,0,0-2.71-1.15c1.58-3.17-2-7.86-5.94-5.6-1.7,1-3.5,2.3-5.33,3.38a2.39,2.39,0,0,0-.25-.32,8,8,0,0,0-4.54-2.13c-2.42-.38-4.83.38-7.27.12a23.88,23.88,0,0,1-7.86-2.77,1.82,1.82,0,0,0-2.47,2.48,13.15,13.15,0,0,0,4.65,4.8A3.9,3.9,0,0,0,719,345a9.1,9.1,0,0,0-2.54,2.19l-.21-.16c-1.91-1.3-5,.4-4.78,2.74s1.44,4.51,2.43,6.66a3.93,3.93,0,0,0,4,1.91,4.12,4.12,0,0,0,3.33-2.87,7.55,7.55,0,0,0,.29-.84l.1-.26a11.9,11.9,0,0,1,.77-1.34c.47-.73,1.36-1.48,2.08-2.57a3.5,3.5,0,0,0-.56-4.65,15.66,15.66,0,0,0,1.87.58c1.67.41,4.7-.23,6.07.43s1.56,2.43,2.75,3.73a4,4,0,0,0,3.93,1c3.4-1,6.73-3.33,9.82-5.07-2.39,4.69-1.06,11.93-.52,16.82C748.62,370.49,758.52,368,756.85,362.09Z" transform="translate(-652.79 -230.79)"/><path class="cls-1" d="M689.8,335.46a4.93,4.93,0,0,0-3.12,3.6,18.64,18.64,0,0,0-2.17-1.54c-1.62-1-4.11.67-3.39,2.61a43.21,43.21,0,0,0,4.3,7.68c1.64,2.64,3.14,5.36,4.67,8.06,2.07,3.66,6.75,1.56,7.2-2C697.87,349.41,698.62,332.34,689.8,335.46Z" transform="translate(-652.79 -230.79)"/><path class="cls-1" d="M716.47,359.27c-2.34-3.63-3.58-7.86-6-11.44-2-2.84-5.74-1-5.3,2.24a52.69,52.69,0,0,0,2,7.91c.67,2.26,1.27,4.48,2.94,6.21C713.25,367.47,719,363.2,716.47,359.27Z" transform="translate(-652.79 -230.79)"/><path class="cls-1" d="M762.4,353.52c-.12-5-.28-10.08-2.38-14.76-1.93-4.28-5-7.86-8-11.44-3.58-4.33-7.31-9.73-12.42-12.32a2,2,0,0,0-2.94,2.27c2.53,10.84,14.44,17.4,16.74,28.34,1.19,5.67.39,11.87.65,17.63.13,3,.87,6.93,4.76,6.64a3.48,3.48,0,0,0,3.3-2.63l.06.08c0-.25.06-.51.09-.76,0-.06,0-.11,0-.17l0-.29a.57.57,0,0,0,0-.13A97.72,97.72,0,0,0,762.4,353.52Z" transform="translate(-652.79 -230.79)"/><path class="cls-1" d="M787.56,279.37a4.15,4.15,0,0,0-4.28-2,13.41,13.41,0,0,0-.88-2.41c-.9-1.87-3.31-1-3.94.52-2.62,6.26-5.7,15-13.69,15.55a4.53,4.53,0,0,0-4.29,3.48,20.29,20.29,0,0,0-3.68-.6,1.67,1.67,0,0,0-1.43,2.49c4,6.21,17,10.9,23.58,6.32C784.65,298.73,790.47,285.94,787.56,279.37Z" transform="translate(-652.79 -230.79)"/><path class="cls-1" d="M710.68,319.39c-2.73.57-6.27,1.27-8.27,3.38a2.28,2.28,0,0,0,.46,3.55l.09.05a9.8,9.8,0,0,0-2,3.36c-1,3.28,2.88,6.14,5.76,4.42,1.66-1,2.76-2.75,4-4.19s2.52-2.62,3.78-3.93C717.4,323.07,714.49,318.6,710.68,319.39Z" transform="translate(-652.79 -230.79)"/><path class="cls-1" d="M733.57,261.23a1.34,1.34,0,0,0-2.48.67c-1,7.21.33,14.54-.85,21.81A60.62,60.62,0,0,1,727.59,294c-.72,2.09-2.46,8.56-4.48,9.74-3.91,2.28-1.27,9.43,3.19,7.57,7.22-3,10-16,11-22.89C738.66,279.9,739.07,268.47,733.57,261.23Z" transform="translate(-652.79 -230.79)"/><ellipse class="cls-2" cx="114.46" cy="49.71" rx="14.75" ry="15"/><path class="cls-3" d="M654.3,367.83l-.21,0a1.49,1.49,0,0,1-1.28-1.68c3.86-28.59,15.13-29.74,29.4-31.2,3.43-.35,7-.71,10.71-1.46.05-.9.07-1.7.07-2.45a27.63,27.63,0,0,0-.32-4.39c-6.17-1.23-18.47-4.76-26.39-28.37a3.81,3.81,0,0,1-1.74.52c-5.91,0-8.53-12.45-8.53-14.16,0-4.19,2.24-6.89,5.72-6.89,4.75,0,7,6,7,10.14a13.18,13.18,0,0,1-.08,1.41,1.48,1.48,0,0,1-1.64,1.34,1.5,1.5,0,0,1-1.34-1.65,10.14,10.14,0,0,0,.06-1.1c0-2.91-1.55-7.14-4-7.14s-2.72,2.72-2.72,3.89c0,1.94,2.76,11.15,5.53,11.16a8.64,8.64,0,0,0,1.67-1,1.5,1.5,0,0,1,1.36-.22,1.53,1.53,0,0,1,1,1c7.79,25,19.88,27.29,25.69,28.39a1.5,1.5,0,0,1,1.19,1.16,28.11,28.11,0,0,1,.57,6c0,1.11,0,2.31-.14,3.77a1.51,1.51,0,0,1-1.17,1.38,105.19,105.19,0,0,1-12.17,1.75c-14,1.42-23.18,2.37-26.73,28.61A1.5,1.5,0,0,1,654.3,367.83Z" transform="translate(-652.79 -230.79)"/><path class="cls-3" d="M663.49,280.91a1.49,1.49,0,0,1-1.48-1.29,32.43,32.43,0,0,0-.8-3.41,47.05,47.05,0,0,1-1.93-12.79c0-11.35,4.76-18.61,12.77-19.62,2.55-4.26,7.74-7.74,15.08-10.08a64.23,64.23,0,0,1,18.47-2.93c10.54,0,25.94,7.61,37.59,29a1.5,1.5,0,1,1-2.63,1.43c-11-20.2-25.28-27.4-35-27.4-10.39,0-27,3.76-31.28,12.12a1.49,1.49,0,0,1-1.23.8c-10,.72-10.81,13-10.81,16.71a43.57,43.57,0,0,0,1.83,12,33.72,33.72,0,0,1,.87,3.76,1.52,1.52,0,0,1-1.28,1.7Z" transform="translate(-652.79 -230.79)"/><path class="cls-3" d="M737.3,272.35a1.51,1.51,0,0,1-1.49-1.35c-.54-5.29-2.07-9.39-4.65-12.52a1.5,1.5,0,1,1,2.31-1.91c2.93,3.55,4.73,8.3,5.33,14.12a1.5,1.5,0,0,1-1.34,1.65Z" transform="translate(-652.79 -230.79)"/><path class="cls-3" d="M673.06,293.1a1.51,1.51,0,0,1-1.48-1.22c-1.06-5.61-1.72-11.5-2.3-16.69a1.49,1.49,0,0,1,.64-1.4c2.49-1.7,8.59-7.24,11.53-22.11a1.52,1.52,0,0,1,.93-1.12,1.54,1.54,0,0,1,1.45.21,35.52,35.52,0,0,0,20.92,7.5,30.87,30.87,0,0,0,8.25-1.16c-4.41-1.41-8.62-3.65-10.87-5.93a1.5,1.5,0,0,1,.71-2.51,35.75,35.75,0,0,1,8.36-1c12.8,0,16.47,6.52,19.37,13.78a1.5,1.5,0,1,1-2.78,1.11c-2.7-6.73-5.63-11.89-16.59-11.89a31.6,31.6,0,0,0-4.49.34,33.55,33.55,0,0,0,11.78,4.38,1.5,1.5,0,0,1,.36,2.86,35.7,35.7,0,0,1-14.1,3.06,38.16,38.16,0,0,1-20.85-6.75c-3,13.09-8.59,18.93-11.54,21.21.57,5.11,1.18,10.38,2.17,15.59a1.49,1.49,0,0,1-1.19,1.75Z" transform="translate(-652.79 -230.79)"/><path class="cls-3" d="M681.12,275.48a1.5,1.5,0,0,1-1.5-1.5v-.16a1.5,1.5,0,0,1,1.32-1.49,22.61,22.61,0,0,1,11.46-2.88,29.24,29.24,0,0,1,3.74.25,1.5,1.5,0,0,1-.4,3,26.64,26.64,0,0,0-3.34-.22A19.34,19.34,0,0,0,682,275.24,1.54,1.54,0,0,1,681.12,275.48Z" transform="translate(-652.79 -230.79)"/><path class="cls-3" d="M727.54,273.84a1.39,1.39,0,0,1-.44-.07c-1-.29-1.91-.64-2.84-1a19.46,19.46,0,0,0-6.52-1.6,8.32,8.32,0,0,0-1.59.15,1.5,1.5,0,1,1-.59-2.94,11.27,11.27,0,0,1,2.18-.21A22.13,22.13,0,0,1,725.3,270c.93.34,1.8.67,2.68.93a1.5,1.5,0,0,1-.44,2.94Z" transform="translate(-652.79 -230.79)"/><path class="cls-3" d="M679.31,285.85a1.47,1.47,0,0,1-.46-.07,1.49,1.49,0,0,1-1-1.43v-.16a1.51,1.51,0,0,1,.7-1.27c2.13-2.78,5.44-5.85,9.66-5.85a5.15,5.15,0,0,1,2.29.52,1.51,1.51,0,0,1,1.28,1,3.31,3.31,0,0,1,.92,2.18c0,.14,0,.27,0,.4s0,.4,0,.59a3.72,3.72,0,0,1-4,3.75,3.62,3.62,0,0,1-3.64-3.09,1.49,1.49,0,0,0,0-.21c0-.15,0-.3,0-.45a3.21,3.21,0,0,1,.1-.81,14.91,14.91,0,0,0-4.59,4.32A1.49,1.49,0,0,1,679.31,285.85Zm8.74-3.7a1,1,0,0,0,.65.32c1,0,1-.54,1-.75s0-.27,0-.4a5.68,5.68,0,0,1,0-.59.71.71,0,0,0-.17-.2,2.07,2.07,0,0,0-.35,0c-.5,0-1.12.81-1.12,1.22,0,.07,0,.14,0,.21S688,282.07,688.05,282.15Z" transform="translate(-652.79 -230.79)"/><path class="cls-3" d="M720.45,284.64c-3.58,0-4-2.29-4-3.28a3.68,3.68,0,0,1,1.1-2.7,14.53,14.53,0,0,0-5.86,3.39,1.5,1.5,0,1,1-1.93-2.3c3.35-2.83,6.23-4.2,8.8-4.2,2.85,0,6,2,6,4.94A4.22,4.22,0,0,1,720.45,284.64Zm-1-3.11a3.3,3.3,0,0,0,1,.11,1.23,1.23,0,0,0,1.16-1.15,1.09,1.09,0,0,0-.22-.62c-1.62.62-1.91,1-1.91,1.49A.45.45,0,0,0,719.5,281.53Z" transform="translate(-652.79 -230.79)"/><path class="cls-3" d="M701.14,303.17a1.51,1.51,0,0,1-1.43-1,2.25,2.25,0,0,1-.11-.68c0-1.39,1.14-1.68,3.65-2.33,4.21-1.08,6.45-2,6.66-2.7,0-.52-1.07-1.24-2.19-2-2.57-1.74-6.46-4.38-6.46-10.69a33.42,33.42,0,0,1,1.11-7.33,37.51,37.51,0,0,0,1-5.34,1.5,1.5,0,1,1,3,.23,40.3,40.3,0,0,1-1,5.78,32,32,0,0,0-1,6.66c0,4.72,2.73,6.57,5.14,8.21,1.73,1.17,3.51,2.38,3.51,4.51,0,3.29-4.94,4.56-8.91,5.59-.54.14-1.17.3-1.6.43a1.49,1.49,0,0,1-.78.61A1.38,1.38,0,0,1,701.14,303.17Zm1.42-2Z" transform="translate(-652.79 -230.79)"/><path class="cls-3" d="M695.91,313.68h-.27a3.8,3.8,0,0,1-3.48-3.74c0-1.52,1.07-3.15,2.67-3.15a2.94,2.94,0,0,1,.92.18l.32.1a3.45,3.45,0,0,1,2.36,1.64,4,4,0,0,1,.42,1.78A3,3,0,0,1,695.91,313.68Zm-.75-3.76a.82.82,0,0,0,.67.75.94.94,0,0,0-.05-.55,4.26,4.26,0,0,0-.54-.18Z" transform="translate(-652.79 -230.79)"/><path class="cls-3" d="M727.44,311.92a1.47,1.47,0,0,1-1.15-.54,1.48,1.48,0,0,1,.19-2.11c2.4-2,9.39-12.23,9.39-25.73a51.74,51.74,0,0,0-.59-7.68,1.5,1.5,0,1,1,3-.45,53.8,53.8,0,0,1,.63,8.13c0,14.73-7.68,25.7-10.47,28A1.46,1.46,0,0,1,727.44,311.92Z" transform="translate(-652.79 -230.79)"/><path class="cls-3" d="M734.45,368.69A1.5,1.5,0,0,1,733,367.5a95.14,95.14,0,0,1-1.47-12.06l-.14-1.88a1.5,1.5,0,0,1,.71-1.4c8.08-4.89,11.79-6.53,20.93-9.24a1.5,1.5,0,0,1,1.91,1.2c1.1,7,1.71,13.9,2.22,20.35a1.5,1.5,0,0,1-3,.23c-.46-5.86-1-12.12-1.94-18.41a67,67,0,0,0-17.78,8l.07,1a96,96,0,0,0,1.41,11.67,1.5,1.5,0,0,1-1.16,1.78A1.63,1.63,0,0,1,734.45,368.69Z" transform="translate(-652.79 -230.79)"/><path class="cls-3" d="M715,346.28c-6.7,0-7.36-12.8-7.36-12.93,0-2.53,2.21-4.29,5.38-4.29a9.21,9.21,0,0,1,6.51,2.88,1.5,1.5,0,1,1-2.19,2.05,6.13,6.13,0,0,0-4.32-1.93s-2.38,0-2.38,1.29c0,2,1.35,9.93,4.36,9.93a5.49,5.49,0,0,0,3.22-.76c.44-.23,1-.5,1.71-.81a1.51,1.51,0,0,1,2,.81,1.49,1.49,0,0,1-.81,2c-.61.26-1.08.5-1.5.71A8.34,8.34,0,0,1,715,346.28Z" transform="translate(-652.79 -230.79)"/><path class="cls-3" d="M736.47,352.82a1.5,1.5,0,0,1-1.5-1.5c-.08-.54-1.47-2.54-3.82-4.82a15.7,15.7,0,0,1-4.43.57c-4.78,0-7.84-3.71-9.48-6.08a1.5,1.5,0,0,1-3,.39,5.86,5.86,0,0,1-.18-1.41c0-2,1.21-3.36,2.88-3.36,1,0,1.39.66,2.11,1.76,1.3,2,3.73,5.7,7.62,5.7a11.82,11.82,0,0,0,4.31-.69,1.51,1.51,0,0,1,1.53.32c1.62,1.5,5.41,5.26,5.41,7.62A1.5,1.5,0,0,1,736.47,352.82Z" transform="translate(-652.79 -230.79)"/><path class="cls-3" d="M711,331.15a1.5,1.5,0,0,1-1.5-1.43c0-.12,0-.24,0-.37,0-4.51,2.82-7.1,7.73-7.1,3.65,0,5.6,2.83,7.18,5.12.32.46.63.92,1,1.33a1.5,1.5,0,1,1-2.38,1.83c-.35-.46-.7-1-1-1.46-1.6-2.31-2.78-3.82-4.71-3.82-4.19,0-4.73,2.19-4.73,4.1v.22a1.49,1.49,0,0,1-1.42,1.58Z" transform="translate(-652.79 -230.79)"/><path class="cls-3" d="M728.39,326.05a1.5,1.5,0,0,1-1.11-.49c-.44-.49-.86-1-1.26-1.56-1.31-1.74-2.55-3.38-4.9-3.38a3.5,3.5,0,0,0-3.42,2.89,1.5,1.5,0,0,1-3-.51,6.54,6.54,0,0,1,6.38-5.38c3.84,0,5.84,2.64,7.3,4.57a16.76,16.76,0,0,0,1.08,1.35,1.5,1.5,0,0,1-.11,2.12A1.47,1.47,0,0,1,728.39,326.05Z" transform="translate(-652.79 -230.79)"/><path class="cls-3" d="M751.6,344.7c-.8,0-1.22-.74-2.38-2.79-12.84-22.72-24.71-34.24-35.3-34.24-2.4,0-2.87.55-2.87.56,0,.51,1,.95,1.33,1.07a36.65,36.65,0,0,1,13,8.8,1.5,1.5,0,1,1-2.22,2,33.74,33.74,0,0,0-11.87-8c-2.68-1.05-3.24-2.67-3.24-3.85,0-1.34.76-3.58,5.87-3.58,11.75,0,24.5,12,37.91,35.76.36.64.73,1.29.92,1.61a1.5,1.5,0,0,1,.5,1.11,1.55,1.55,0,0,1-1.13,1.48A2,2,0,0,1,751.6,344.7Z" transform="translate(-652.79 -230.79)"/><path class="cls-3" d="M704.17,346.4a15.24,15.24,0,0,1-4.83-.73,1.52,1.52,0,0,1-.9-.82q-.65-1.44-1.17-2.58c-1.59-3.45-2.38-5.18-1.45-6.66s2.9-1.56,7.57-1.63c1.21,0,2.61-.05,4.23-.1a1.5,1.5,0,1,1,.09,3c-1.63.05-3.05.08-4.27.09a30.41,30.41,0,0,0-5,.29A25.8,25.8,0,0,0,700,341c.27.6.58,1.26.9,2a12.52,12.52,0,0,0,3.27.4c1.64,0,4.9-.38,5.63-.83a1.5,1.5,0,0,1,2.32,1.9C710.68,346.38,704.23,346.4,704.17,346.4Zm5.55-3.74h0Zm.11-.11Z" transform="translate(-652.79 -230.79)"/><path class="cls-3" d="M697.25,368a1.52,1.52,0,0,1-1.23-.64,137.4,137.4,0,0,1-7.35-12.06c-2.5-4.45-5.33-9.5-9.87-16.42a1.5,1.5,0,1,1,2.51-1.65c4.59,7,7.45,12.11,10,16.6a133.93,133.93,0,0,0,7.19,11.81,1.5,1.5,0,0,1-1.23,2.36Z" transform="translate(-652.79 -230.79)"/><path class="cls-3" d="M712.54,368.78a1.46,1.46,0,0,1-.72-.19,1.49,1.49,0,0,1-.59-2,49.41,49.41,0,0,1,4.26-6.24c.94-1.23,1.91-2.51,2.82-3.87.19-.28.56-.87,1.05-1.65,1.63-2.58,4.36-6.91,6.28-9.35A1.5,1.5,0,1,1,728,347.3c-1.83,2.33-4.61,6.74-6.1,9.1-.51.82-.9,1.43-1.1,1.73-1,1.42-2,2.74-2.92,4a46.21,46.21,0,0,0-4,5.86A1.51,1.51,0,0,1,712.54,368.78Z" transform="translate(-652.79 -230.79)"/><path class="cls-3" d="M695.73,363.33a1.6,1.6,0,0,1-.53-.09,1.51,1.51,0,0,1-.88-1.94,105.26,105.26,0,0,0,4.7-16.59,1.5,1.5,0,0,1,2.94.59,109.08,109.08,0,0,1-4.83,17.06A1.49,1.49,0,0,1,695.73,363.33Z" transform="translate(-652.79 -230.79)"/><path class="cls-3" d="M716.1,363.61a1.48,1.48,0,0,1-1.32-.79,110.38,110.38,0,0,1-6.67-16.63l-.2-.58a1.5,1.5,0,1,1,2.84-1l.2.59a110.07,110.07,0,0,0,6.47,16.18,1.49,1.49,0,0,1-.62,2A1.45,1.45,0,0,1,716.1,363.61Z" transform="translate(-652.79 -230.79)"/><path class="cls-3" d="M765.73,284.79a1.51,1.51,0,0,1-1.5-1.36c0-.18,0-.35,0-.52,0-3,2.24-4.37,3.88-5.35s2.29-1.49,2.29-2.52-2.3-2.1-4.11-2.1c-1.58,0-2.39.85-2.39,1.21a.31.31,0,0,0,0,.15,1.51,1.51,0,0,1-.76,2,1.49,1.49,0,0,1-2-.76,3.29,3.29,0,0,1-.3-1.37c0-2,2.06-4.21,5.39-4.21,2.91,0,7.11,1.82,7.11,5.1,0,2.83-2.16,4.13-3.74,5.08s-2.43,1.59-2.43,2.79a1.85,1.85,0,0,0,0,.23,1.5,1.5,0,0,1-1.35,1.64Z" transform="translate(-652.79 -230.79)"/><path class="cls-3" d="M766.29,292.14a1.93,1.93,0,0,1-2-2.06,2,2,0,0,1,2-2.25h.09c2.18,0,2.29,1.64,2.29,2A2.25,2.25,0,0,1,766.29,292.14Zm0-3a.79.79,0,0,0-.65.66,1.13,1.13,0,0,0,.77,1,1.09,1.09,0,0,0,.9-.83A1.12,1.12,0,0,0,766.29,289.14Z" transform="translate(-652.79 -230.79)"/><path class="cls-3" d="M767.57,298A17.54,17.54,0,0,1,755.36,293a17,17,0,0,1-5-12.22c0-8.34,5.43-15.49,13-17a19.36,19.36,0,0,1,3.23-.36,17.56,17.56,0,0,1,12.78,4.76,17.25,17.25,0,0,1,5,12.45c0,9.24-7.56,17.16-16.53,17.3ZM767,266.44h-.42a17.56,17.56,0,0,0-2.71.3c-6.14,1.23-10.59,7.14-10.56,14.05a13.84,13.84,0,0,0,4.12,10.08A14.57,14.57,0,0,0,767.79,295c7.37-.12,13.58-6.66,13.58-14.3A13.79,13.79,0,0,0,767,266.44Z" transform="translate(-652.79 -230.79)"/></svg>