<svg id="Режим_изоляции" data-name="Режим изоляции" xmlns="http://www.w3.org/2000/svg" viewBox="0 0 168.8 165.51"><defs><style>.cls-1{fill:#ffc410;}.cls-2{fill:#e0dfe6;}.cls-3{fill:#144665;}</style></defs><title>новый пользователь</title><path class="cls-1" d="M675,559.5s-.54-14.12,4.5-15,22.64-3.38,22.64-3.38a29.57,29.57,0,0,0,18.36,9.38c12,1.5,19.93-1.49,23.5-4s18-6,24-1.5a19.86,19.86,0,0,1,7.12,11.69Z" transform="translate(-640.98 -415.5)"/><path class="cls-2" d="M643.94,426.84c-2.72,10.9-2,23.19-2.12,34.36-.1,12.08-.51,24.15-.71,36.22-.19,11.68-.27,23.41.55,35.07.4,5.66,1,11.29,1.73,16.91.83,6.18,1.36,13,3.6,18.83,1.4,3.63,4.5,6.22,8.59,5.61,3.6-.54,7.07-3.75,6.79-7.69-.42-6-2.06-11.88-2.89-17.83-.78-5.56-1.28-11.17-1.67-16.77-.81-12-1.13-24-1.16-36,0-11.75.1-23.51-.07-35.26-.16-11.24-.52-24-5-34.41-1.45-3.38-6.81-2.24-7.62,1Z" transform="translate(-640.98 -415.5)"/><path class="cls-2" d="M654.82,575a278.6,278.6,0,0,0,77.77,5.28q9.61-.71,19.22-1.69c6.47-.66,12.78-2.16,19.19-2.9a130.08,130.08,0,0,1,19.14-.52c6,.19,13.39,1.51,18.09-3a5.43,5.43,0,0,0,.84-6.47c-3.3-5.36-10.27-6-16.06-6.33-6.69-.35-13.4-.39-20.09-.17-6.45.21-12.74-.56-19.19-.06-6.73.52-13.45,1.21-20.18,1.74a377.63,377.63,0,0,1-38.51.69c-13.49-.29-26.86-1.09-40.22,1.25-6.15,1.07-5.93,11,0,12.2Z" transform="translate(-640.98 -415.5)"/><path class="cls-2" d="M735.51,469.93c-3.55-.33-7.91-1.59-10.39,1.73a22.79,22.79,0,0,0-3,6.76,6.36,6.36,0,0,0-2.73-5A3.56,3.56,0,0,0,715,474a6,6,0,0,0-1.52,4.43c0,2.21-1.27,2.27-3.13,3.32-3.68,2.06-6.91,3.8-11,4.77a1.05,1.05,0,0,0-.62,1.53,5.24,5.24,0,0,0,1.61,2,14.64,14.64,0,0,0-6.71,1.93,1.57,1.57,0,0,0-.31,2.44c5.56,5.71,18.64,2.77,25.29.53,3.06-1,5.54-2.58,7.12-5.47a46.64,46.64,0,0,0,2.31-5.84c.68-1.78,1.34-4.93,2.47-6.87a47.13,47.13,0,0,1,5,.45C740.08,477.7,740.15,470.35,735.51,469.93Z" transform="translate(-640.98 -415.5)"/><path class="cls-2" d="M766.1,538.17a69.67,69.67,0,0,0-11-1.06c-1.89-.1-3.78-.18-5.66-.29-.93-.09-1.86-.13-2.78-.18,0-.54-.09-1.08-.15-1.61,11-7.41,20.34-22.93,16.27-36.08a3.05,3.05,0,0,0,4.41-.93c2.18-3.83,2.21-8.75,3.46-13,1-3.37,2.16-7,1.41-10.53-.33-1.58-1.22-2.54-1.89-3.92-1.19-2.46-.72-5-1.16-7.59-.57-3.34-1.73-6.87-4.45-9a1.61,1.61,0,0,0-2.7,1.12c0,3.76,1.19,7.4,1,11.22-.16,4.19.24,4.77,1.9,8.41s.27,7.29-1.25,11c.58-4.49.74-10.07-2.08-9.18-1.91.61-2.36,2.91-3,4.62-.37,1-.75,2-1.14,3.08-1.56.07-3.16.37-4.82.55-3.33.34-7,.08-10.14,1.4a2.06,2.06,0,0,0-.49,3.7,10.93,10.93,0,0,0,3.35,1.61c-1,0-2.11,0-3.13-.08-1.49-.07-2.78,1.9-1.82,3.19a10.24,10.24,0,0,0,5,4,19.15,19.15,0,0,0,4.49.5,25.8,25.8,0,0,1-5.23,15.63C740.17,520.17,733,523,726.46,525a3.27,3.27,0,0,0-1.92,4.73c3.57,7.29,7.2,16.52,16.39,17.32a3.83,3.83,0,0,0,4-2.66c.86-.11,1.75-.28,2.67-.4a58.35,58.35,0,0,1,13.21-.16c5.06.51,8.93,1.4,10.3,6.89.9,3.58,5.95,2.59,6.18-.84C777.69,543.6,771.64,539.39,766.1,538.17Zm-9.07-44a5.47,5.47,0,0,0-1.86-1.73c.41,0,.82,0,1.23-.05,0,0,.07.08.11.11a4.28,4.28,0,0,0,1.54.91A1.89,1.89,0,0,0,757,494.17Zm4.13.91c-.14-.26-.28-.52-.43-.78a2,2,0,0,0-.94-.8,3.48,3.48,0,0,0,1.48-.66A11.18,11.18,0,0,0,761.16,495.08Zm-25.29,38.61c0,.25.09.5.13.76a43.2,43.2,0,0,1-3.29-4.27c1.38-.33,2.75-.69,4.09-1.11A5.94,5.94,0,0,0,735.87,533.69Z" transform="translate(-640.98 -415.5)"/><path class="cls-2" d="M716.24,463a30.35,30.35,0,0,0-6.61,1.66c-2.19.68-4.48.71-6.66,1.33a2.5,2.5,0,0,0-.59,4.51C707,473.8,716,472.2,718.56,467,719.39,465.34,718.41,462.79,716.24,463Z" transform="translate(-640.98 -415.5)"/><path class="cls-2" d="M746.39,437.53c-5.52-1-11.37-.12-16.93.37-6,.51-12,1.22-17.9,2.05-4.33.6-10.29.62-12.95,4.65-2.14,3.26-3.82,8.38-2.76,12.19a2,2,0,0,0,2.94,1.19,9,9,0,0,0,3.29-3.32l1.69-3.14a6.07,6.07,0,0,0,1-1.45c1.45-.32,4.2-.3,5.15-.41,2.6-.32,5.2-.66,7.8-.94q6.85-.74,13.72-1.18c5-.31,10.14,0,15-1.18C750.59,445.32,750.92,438.35,746.39,437.53Z" transform="translate(-640.98 -415.5)"/><path class="cls-2" d="M710.88,533.54a9.82,9.82,0,0,0-2.54-4.58,17.25,17.25,0,0,0-3.6-2.69c-1.18-.7-2.58-1.85-3.94-2a2,2,0,0,0-2.18.88c-1.42,3.15,1.37,5.71,2.93,8.2.77,1.23.42,1.9.46,3.32a5.32,5.32,0,0,0,3.78,5c2.83,1.11,5.31-1.67,5.5-4.19A13.22,13.22,0,0,0,710.88,533.54Z" transform="translate(-640.98 -415.5)"/><path class="cls-2" d="M731.92,507.65c-2.46-.88-4.66,1-6.44,2.43a2.64,2.64,0,0,0-.55,2.91,2.71,2.71,0,0,0,2.43,1.63c2.53.16,5.88-.72,6.48-3.59A2.82,2.82,0,0,0,731.92,507.65Z" transform="translate(-640.98 -415.5)"/><path class="cls-3" d="M758.66,494.18c-17.81,0-22,0-22-9a49,49,0,0,1,.55-6.34,45.77,45.77,0,0,0,.53-5.95v-.59c0-.35,0-.74,0-1-.48-.06-1.42-.05-2.4-.05h-1.45c-10.5,0-11,3.85-11.66,9.17-.74,5.9-1.67,13.24-18.28,13.24-1.81,0-3.63-.08-5.4-.16s-3.51-.14-5.23-.14c-2.75,0-4.46-2.7-4.46-7,0-.78.05-1.56.09-2.32s.1-1.48.1-2.19c0-.21,0-.42,0-.61l-1,0a51.33,51.33,0,0,0-8.15.75,1.53,1.53,0,0,1-1.22-.29,1.5,1.5,0,0,1-.57-1.11c-.09-1.75-.15-3.5-.21-5.24a1.5,1.5,0,0,1,1.22-1.52,123.55,123.55,0,0,1,22.77-2.28c1.91,0,3.82,0,5.73.05s3.77.05,5.65.05c3.24,0,5.87-.07,8.3-.23a1.58,1.58,0,0,1,.83.18c2-2,5.44-3.34,11.53-3.34h1.43c2.59,0,3.78,0,4.66.86s.78,1.81.77,3.21v.57a49.13,49.13,0,0,1-.55,6.35,44,44,0,0,0-.53,5.94c0,5.52,0,6,19,6,1.16-.3,3.86-7.6,4.56-14.55a1.5,1.5,0,0,1,3,.3C766.19,477.1,764.23,494.18,758.66,494.18Zm-68.33-16a1.49,1.49,0,0,1,1.47,1.24,13.92,13.92,0,0,1,.2,2.44c0,.81,0,1.6-.1,2.38s-.09,1.44-.09,2.13c0,2,.55,4,1.46,4,1.78,0,3.6.07,5.35.15s3.54.15,5.28.15c14,0,14.59-4.92,15.31-10.62a21.83,21.83,0,0,1,1.2-5.57c-2.14.12-4.47.17-7.23.17-1.89,0-3.79,0-5.69-.05s-3.79-.05-5.69-.05a120.48,120.48,0,0,0-20.95,2l.09,2.23a67.6,67.6,0,0,1,6.89-.52c.81,0,1.61-.06,2.42-.11Z" transform="translate(-640.98 -415.5)"/><path class="cls-3" d="M770.29,477.72h-.22a174.89,174.89,0,0,0-17.65-1.43c-4.2-.2-8.55-.41-12.8-.83a1.5,1.5,0,0,1,.3-3c4.17.42,8.48.62,12.64.82a179.36,179.36,0,0,1,18,1.46,1.5,1.5,0,0,1-.22,3Z" transform="translate(-640.98 -415.5)"/><path class="cls-3" d="M702.24,485.4a4.73,4.73,0,0,1-.54,0l-.33,0a2.75,2.75,0,0,1-2.52-2.48,1.74,1.74,0,0,1,.08-.5l.08-.26a4,4,0,0,1,1-1.88,1.47,1.47,0,0,1,1.26-.43,1.51,1.51,0,0,1,1.73-.27l.18.09a3,3,0,0,1-1,5.79Z" transform="translate(-640.98 -415.5)"/><path class="cls-3" d="M752.89,487.45a3.1,3.1,0,0,1-2.35-.86,3.15,3.15,0,0,1-.69-2.49,2.72,2.72,0,0,0,0-.28,1.5,1.5,0,0,1,.44-1.06,2.78,2.78,0,0,1,1.1-.62l.15-.08a1.57,1.57,0,0,1,.65-.25,3.94,3.94,0,0,1,1-.14,2.66,2.66,0,0,1,2.81,2.62A3.24,3.24,0,0,1,752.89,487.45Z" transform="translate(-640.98 -415.5)"/><path class="cls-3" d="M709.49,539.92a1.33,1.33,0,0,1-.28,0,1.51,1.51,0,0,1-1.2-1.75,19.15,19.15,0,0,0,.35-3.47,8.53,8.53,0,0,0-2.44-6.55,8.17,8.17,0,0,0-3-1.34c-8-2.51-16-7.78-18.45-41.35a1.5,1.5,0,0,1,3-.22c2.49,34.35,10.83,37,16.35,38.71a10.22,10.22,0,0,1,4.17,2,11.53,11.53,0,0,1,3.38,8.73,21.54,21.54,0,0,1-.4,4A1.5,1.5,0,0,1,709.49,539.92Z" transform="translate(-640.98 -415.5)"/><path class="cls-3" d="M687.48,468.88a1.53,1.53,0,0,1-.47-.07,1.49,1.49,0,0,1-1-1.89l.42-1.3c3.24-10,6.59-20.36,16.08-26.76a4.14,4.14,0,0,1,2.23-.92c2,0,2.4,2,2.7,3.33a11.23,11.23,0,0,0,.36,1.35A21.89,21.89,0,0,0,710.3,440c1.68-2,3.42-4,5.7-4,3.5,0,4.06,5.42,4.27,7.47l0,.22a1.49,1.49,0,0,1-1.32,1.65,1.51,1.51,0,0,1-1.66-1.32l0-.24c-.43-4.22-1.23-4.74-1.32-4.79-.86,0-2.2,1.58-3.38,3a14.43,14.43,0,0,1-4.53,4,1.48,1.48,0,0,1-1.49-.14c-1.33-.95-1.71-2.61-2-3.94,0-.21-.1-.46-.16-.69l-.16.1c-8.64,5.83-11.82,15.68-14.91,25.21l-.42,1.3A1.49,1.49,0,0,1,687.48,468.88Zm17.45-28Z" transform="translate(-640.98 -415.5)"/><path class="cls-3" d="M690.17,472a1.41,1.41,0,0,1-.6-.13,1.5,1.5,0,0,1-.77-2c2.39-5.43,6.38-13.13,13.33-17.19a1.5,1.5,0,0,1,1.51,2.59c-4.72,2.75-8.56,7.78-12.1,15.81A1.47,1.47,0,0,1,690.17,472Z" transform="translate(-640.98 -415.5)"/><path class="cls-3" d="M699.35,469.39a1.5,1.5,0,0,1-.5-2.92,56.25,56.25,0,0,1,16.09-2.6,1.47,1.47,0,0,1,1.57,1.42,1.5,1.5,0,0,1-1.43,1.57c-5,.24-10.24.7-15.24,2.45A1.67,1.67,0,0,1,699.35,469.39Z" transform="translate(-640.98 -415.5)"/><path class="cls-3" d="M758.56,470a29.45,29.45,0,0,1-5.76-.73,22.28,22.28,0,0,0-5.86-.65,1.5,1.5,0,1,1-.19-3,25.67,25.67,0,0,1,6.64.7,26.38,26.38,0,0,0,5.17.68,1.5,1.5,0,0,1,0,3Z" transform="translate(-640.98 -415.5)"/><path class="cls-3" d="M764.13,449.3h-.21a10.36,10.36,0,0,1-3.84-1.65,14.37,14.37,0,0,0-1.37-.79c-3.1-1.48-6.38-1.57-9.85-1.67-1.47,0-3-.08-4.53-.23a1.5,1.5,0,0,1-.18-3l2.11-.44c2-.4,6.78-1.37,9.88-2.27-2.27-.24-6.33-.46-13.53-.46A158.1,158.1,0,0,0,723,440.46l-3,.37a1.5,1.5,0,1,1-.36-3l3-.36a161.5,161.5,0,0,1,20-1.67c18.64,0,18.78,1.37,18.93,2.95s-.86,2.46-6.39,3.88a17.91,17.91,0,0,1,4.86,1.5,17.4,17.4,0,0,1,1.64.93,7.63,7.63,0,0,0,2.69,1.23,1.5,1.5,0,0,1-.21,3Z" transform="translate(-640.98 -415.5)"/><path class="cls-3" d="M713,450.7a1.5,1.5,0,0,1-.23-3,108.16,108.16,0,0,1,16.86-1.19c4.62,0,7.44.15,10.16.3s5.27.28,9.51.28h2.87a86.09,86.09,0,0,1,11.82.61,1.5,1.5,0,0,1-.41,3,82.61,82.61,0,0,0-11.41-.58h-2.87c-4.32,0-7-.14-9.67-.29s-5.46-.29-10-.29a104.77,104.77,0,0,0-16.4,1.16Z" transform="translate(-640.98 -415.5)"/><path class="cls-3" d="M762,473.19a1.5,1.5,0,0,1-1.5-1.5c0-8.61-1.47-15.59-4.36-20.75a1.5,1.5,0,0,1,2.62-1.47c3.19,5.7,4.74,13,4.74,22.22A1.5,1.5,0,0,1,762,473.19Z" transform="translate(-640.98 -415.5)"/><path class="cls-3" d="M725.56,531.13a18.22,18.22,0,0,1-2.12-.11,1.5,1.5,0,1,1,.33-3,17.15,17.15,0,0,0,1.79.09c23.73,0,27.71-17.83,30.34-29.63.42-1.88.82-3.66,1.25-5.13a1.5,1.5,0,0,1,2.88.84c-.41,1.38-.78,3-1.2,4.94C756.16,511.11,751.7,531.13,725.56,531.13Z" transform="translate(-640.98 -415.5)"/><path class="cls-3" d="M675.34,556.31h-.07a1.58,1.58,0,0,1-1.42-1.61v-.41a1.58,1.58,0,0,1,.11-.58c.45-3.16,2.31-11.18,9.88-13a75.1,75.1,0,0,1,15.28-1.6c2.68-.1,5.44-.19,8.17-.46a1.5,1.5,0,0,1,.29,3c-2.82.27-5.63.37-8.35.46a73,73,0,0,0-14.69,1.52c-6.51,1.57-7.55,9.65-7.69,11.25A1.57,1.57,0,0,1,675.34,556.31Z" transform="translate(-640.98 -415.5)"/><path class="cls-3" d="M775.12,556.69a1.5,1.5,0,0,1-1.48-1.25c-1.5-9-9.12-10.81-20.1-10.81h-2.29c-15.59,0-17.23-2.93-17.48-10.14a34.07,34.07,0,0,0-.29-4,1.5,1.5,0,1,1,3-.42,37.46,37.46,0,0,1,.32,4.31c.17,5.12.25,7.24,14.48,7.24h2.29c10.31,0,21.1,1.58,23.06,13.32a1.5,1.5,0,0,1-1.24,1.72A1,1,0,0,1,775.12,556.69Z" transform="translate(-640.98 -415.5)"/><path class="cls-3" d="M729.42,552.83c-.27,0-27.33-1.51-27.33-11a5.85,5.85,0,0,1,0-.59v-.15a1.55,1.55,0,0,1,1.55-1.44,1.47,1.47,0,0,1,1.45,1.47,4.21,4.21,0,0,1,0,.46,2.11,2.11,0,0,0,0,.25c0,2.1,3.83,4.31,10.25,5.92a74.14,74.14,0,0,0,14.08,2.05c5.57,0,12.75-2.08,15.36-6.64a1.5,1.5,0,0,1,2.61,1.48C744.16,550.31,736,552.83,729.42,552.83Z" transform="translate(-640.98 -415.5)"/><path class="cls-3" d="M720.34,521.11a12.13,12.13,0,0,1-10.21-6.57,1.5,1.5,0,0,1,2.69-1.34c1.52,3,5.18,5.27,8.27,4.86a1.5,1.5,0,0,1,.39,3A8.62,8.62,0,0,1,720.34,521.11Z" transform="translate(-640.98 -415.5)"/><path class="cls-3" d="M727.56,511.73a1.52,1.52,0,0,1-1-.36,1.5,1.5,0,0,1-.16-2.12,7.42,7.42,0,0,1,3.15-1.8,8,8,0,0,0,1.71-.76c-1.45-2.8-4.83-10.07-4.83-17.06a56.77,56.77,0,0,1,1.5-12.21,1.5,1.5,0,0,1,2.93.64,54.11,54.11,0,0,0-1.43,11.57c0,6.8,3.62,14.05,4.73,16.11a1.63,1.63,0,0,1,.22.8c0,2.33-2.19,3.14-3.79,3.73a5.74,5.74,0,0,0-1.91.93A1.5,1.5,0,0,1,727.56,511.73Z" transform="translate(-640.98 -415.5)"/><path class="cls-3" d="M654,572.5c-1.8,0-4.43-2.58-4.53-4.39C646.79,543,646.39,518,646,493.9c-.34-21.09-.69-42.9-2.55-64.77V429c0-5.24,2.49-8.5,6.5-8.5,44.08-2.6,92.59-5,148-5,3.6,0,6.45,0,9.83,2.25l.61.41.05.72c1.77,22.34,1.12,51.08.5,78.87-.45,19.83-.86,38.55-.42,54.29a1.5,1.5,0,0,1-1.46,1.54h0a1.5,1.5,0,0,1-1.5-1.46c-.45-15.81,0-34.57.42-54.43.61-27.41,1.25-55.74-.43-77.82-2.35-1.37-4.37-1.37-7.56-1.37-55.33,0-103.79,2.4-147.92,5-3.1,0-3.57,3.38-3.58,5.44,1.86,21.95,2.21,43.79,2.55,64.92.38,24.08.78,49,3.44,74v.07A4.23,4.23,0,0,0,654,569.5c26.68-.58,56.66-1.51,85.65-2.4q32.34-1,61.14-1.8a1.5,1.5,0,1,1,.08,3q-28.83.75-61.12,1.8C710.75,571,680.73,571.92,654,572.5Z" transform="translate(-640.98 -415.5)"/></svg>